<svg preserveAspectRatio="xMidYMid meet" width="111" height="33.121" overflow="visible" style="display: block;" viewBox="0 0 111 33.121" fill="none" xmlns="http://www.w3.org/2000/svg">
<g id="Group 191">
<path id="Vector" d="M67.5943 7.09683C66.2 7.27326 62.5837 8.24409 58.8465 13.3015C61.7702 6.8451 57.8868 1.61745 56.6225 0.166879C56.4275 -0.0570007 56.0741 -0.0539056 55.8751 0.165847C51.3875 5.10255 52.3796 9.9433 53.9872 13.1292C50.0439 8.36996 46.4297 7.65086 45.1237 7.5611C44.8729 7.54356 44.6931 7.80974 44.7804 8.0491C45.4771 9.95465 46.3301 11.3588 46.9709 12.277C48.3389 14.2373 50.1729 16.866 53.1717 17.3024C54.2421 17.4582 55.1835 17.2932 55.9086 17.0765C56.133 19.5 55.7634 21.1713 55.3643 22.9221C54.8423 25.2197 54.2502 27.8238 54.9438 32.3911C55.0139 32.8554 55.4374 33.1752 55.8934 33.1133C55.8984 33.1123 55.9045 33.1112 55.9096 33.1112C56.3717 33.038 56.6885 32.5985 56.6174 32.1291C55.9736 27.8888 56.5027 25.5612 57.0145 23.309C57.4156 21.5458 57.8239 19.7239 57.6157 17.1425C58.4423 17.3324 59.4548 17.4221 60.5475 17.1477C63.1798 16.4853 64.634 14.132 66.0283 11.8757C66.6478 10.8739 67.3973 9.4615 68.0106 7.63848C68.1041 7.35992 67.8817 7.06072 67.5943 7.09683Z" fill="var(--fill-0, #093B35)"/>
<path id="Vector_2" d="M45.9351 24.7069C44.7677 24.2605 44.0187 23.7729 43.6888 23.4471C42.1826 22.0288 40.1295 20.2107 35.8057 17.0652C32.1744 14.5407 25.3718 13.4297 18.2696 13.4297H0C0 13.4297 1.33841 17.3596 5.33238 21.0184C9.32552 24.6764 16.1224 24.8558 30.2449 24.8558H40.8082C42.5534 24.8558 44.6065 25.1478 45.0567 25.3031C45.6592 25.5098 45.7607 25.5275 46.3165 25.76C50.2712 27.4156 53.4207 30.0032 55.5 32.6757L56.3952 31.8926C54.0384 28.8605 50.5905 26.4873 45.9351 24.7069Z" fill="var(--fill-0, #093B35)"/>
<path id="Vector_3" d="M65.0649 25.5976C66.2323 25.1511 66.9813 24.6636 67.3112 24.3378C68.8174 22.9194 70.8705 21.1013 75.1943 17.9558C78.8256 15.4313 85.6282 14.3203 92.7304 14.3203H111C111 14.3203 109.662 18.2502 105.668 21.909C101.674 25.567 94.8776 25.7464 80.7551 25.7464H70.1918C68.4466 25.7464 66.3935 26.0384 65.9433 26.1937C65.3408 26.4005 65.2393 26.4182 64.6835 26.6506C60.7288 28.3063 57.7565 30.4462 55.6772 33.1187L55.0524 31.776C57.4092 28.7439 60.4095 27.3779 65.0649 25.5976Z" fill="var(--fill-0, #093B35)"/>
</g>
</svg>
