<svg preserveAspectRatio="xMidYMid meet" width="66.7307" height="67.004" overflow="visible" style="display: block;" viewBox="0 0 66.7307 67.004" fill="none" xmlns="http://www.w3.org/2000/svg">
<g id="Group 145">
<path id="Vector" d="M17.0814 31.302C17.0573 39.8699 18.4842 45.7806 21.2129 51.366C21.4877 51.928 21.7528 52.8893 22.5242 52.628C23.31 52.3618 22.8616 51.4794 22.77 50.8583C22.3265 47.7328 22.2928 44.6074 22.7845 41.4869C23.768 35.2113 26.4677 29.6999 30.1219 24.642C30.8258 23.6659 31.0909 23.0053 30.2762 21.8369C28.4442 19.2094 27.7115 16.1776 28.0007 12.9289C28.2562 10.05 30.3244 7.71821 32.8072 7.51609C35.6418 7.28439 37.7486 8.96543 38.5199 12.0268C39.1177 14.398 38.5874 16.6361 37.9318 18.9038C37.4449 20.5848 35.5358 21.9109 35.9215 23.518C36.3264 25.1941 37.8305 26.5892 38.8526 28.1076C38.9201 28.2111 38.9924 28.3097 39.0551 28.4132C42.9407 35.0289 44.9558 42.0981 44.0736 49.8772C43.9676 50.8139 43.3457 52.2977 44.1749 52.5492C45.2981 52.8893 45.5536 51.2724 45.9393 50.4097C54.0288 32.4309 48.263 13.4712 34.1233 0.570098C33.5978 0.0869846 33.2025 -0.0313289 32.5999 0.53066C23.1075 9.43868 17.2838 20.1411 17.0814 31.302Z" fill="var(--fill-0, white)"/>
<path id="Vector_2" d="M33.3086 66.4754C35.1791 64.2078 36.5145 61.876 37.6812 59.4555C43.2976 47.8164 41.2246 37.0499 34.0607 26.8798C33.5111 26.096 33.1688 26.1059 32.6241 26.8897C28.7191 32.5096 25.9182 38.5633 25.7832 45.598C25.6386 53.4659 28.7239 60.1654 33.3086 66.4754Z" fill="var(--fill-0, white)"/>
<path id="Vector_3" d="M57.3931 10.5227C57.6196 11.2573 57.8366 11.8784 57.9957 12.5143C59.5094 18.5878 58.8249 24.602 57.4123 30.5719C55.7491 37.5968 52.9964 44.1928 49.7471 50.5916C49.5494 50.981 48.995 51.405 49.453 51.8831C49.7712 52.2184 50.2533 51.9078 50.6438 51.824C52.8807 51.3705 55.1128 50.8775 57.3448 50.4092C61.6837 49.5021 64.446 46.7267 65.5115 42.4822C68.3847 31.0501 66.1285 20.6829 58.8441 11.4988C58.5115 11.065 58.2656 10.365 57.3931 10.5227Z" fill="var(--fill-0, white)"/>
<path id="Vector_4" d="M8.82832 10.9141C8.60656 10.9338 8.45711 10.9042 8.3848 10.9683C8.15821 11.1655 7.94609 11.3824 7.75808 11.619C0.478509 20.808 -1.61859 31.1654 1.21611 42.5777C1.86693 45.2003 3.26017 47.468 5.59831 48.8878C9.23328 51.0914 13.4757 50.8892 17.747 52.2843C17.289 51.3132 17.0769 50.8202 16.831 50.342C14.2759 45.3926 12.1114 40.2755 10.4819 34.9317C8.55835 28.6216 7.26153 22.2278 8.0859 15.5431C8.27874 14.0001 8.97777 12.531 8.82832 10.9141Z" fill="var(--fill-0, white)"/>
<path id="Vector_5" d="M53.0601 31.8559C53.7929 31.708 53.7977 31.2545 53.8797 30.9538C55.0608 26.4776 55.8128 21.9324 55.432 17.2836C54.8487 10.17 51.6138 4.8262 45.1056 1.84372C43.1146 0.941578 41.0946 0.0394378 38.4238 0C47.1593 9.05591 52.2888 19.4429 53.0601 31.8559Z" fill="var(--fill-0, white)"/>
<path id="Vector_6" d="M13.403 31.8111C14.0104 28.1187 14.4636 24.4707 15.5435 20.9459C17.8141 13.5316 21.6998 7.11312 26.8774 1.47351C27.186 1.13829 27.7597 0.862227 27.5427 0.290378C27.3933 -0.0990701 26.916 -0.000475513 26.5786 0.0882596C20.509 1.67563 15.3989 4.55952 12.7715 10.7956C11.0456 14.8873 11.007 19.1959 11.412 23.4946C11.6771 26.3341 12.111 29.1835 13.403 31.8111Z" fill="var(--fill-0, white)"/>
<path id="Vector_7" d="M27.9188 66.8842C25.383 64.0743 23.3582 60.9439 20.8995 58.1931C19.7859 56.9508 18.3011 56.1917 16.768 55.6395C13.4271 54.4416 9.85966 54.2494 6.00293 53.0859C11.7543 60.9193 18.8603 65.5187 27.9188 66.8842Z" fill="var(--fill-0, white)"/>
<path id="Vector_8" d="M60.016 53.3438C57.3259 53.9107 54.631 54.4579 51.941 55.0494C49.6125 55.5621 47.39 56.4396 45.7605 58.2488C43.2489 61.0391 41.1759 64.2089 38.5967 67.004C47.6118 65.5744 54.7708 61.0982 60.016 53.3438Z" fill="var(--fill-0, white)"/>
<path id="Vector_9" d="M33.2799 20.3845C35.0974 17.969 35.6229 15.4252 35.189 12.6596C35.0347 11.6737 34.4321 10.9737 33.3571 10.9688C32.2917 10.9688 31.771 11.6293 31.5251 12.6399C30.8454 15.4696 31.824 17.8753 33.2799 20.3845Z" fill="var(--fill-0, white)"/>
<path id="Vector_10" d="M17.0814 31.302C17.2838 20.1411 23.1075 9.43868 32.5999 0.53066C33.2025 -0.0313289 33.593 0.0869846 34.1233 0.570098C48.263 13.4712 54.0288 32.4309 45.9393 50.4097C45.5488 51.2724 45.2981 52.8893 44.1749 52.5492C43.3457 52.2977 43.9676 50.8139 44.0736 49.8772C44.951 42.0981 42.9407 35.024 39.0551 28.4132C38.9924 28.3097 38.9201 28.2111 38.8526 28.1076C37.8305 26.5892 36.3264 25.1892 35.9215 23.518C35.5358 21.9109 37.44 20.5848 37.9318 18.9038C38.5922 16.6361 39.1225 14.398 38.5199 12.0268C37.7486 8.96543 35.6418 7.28439 32.8072 7.51609C30.3244 7.71821 28.2562 10.05 28.0007 12.9289C27.7115 16.1826 28.4442 19.2094 30.2762 21.8369C31.0909 23.0053 30.8258 23.6659 30.1219 24.642C26.4677 29.6999 23.768 35.2064 22.7845 41.4869C22.2976 44.6074 22.3265 47.7328 22.77 50.8583C22.8568 51.4794 23.3051 52.3618 22.5242 52.628C21.748 52.8942 21.4877 51.9329 21.2129 51.366C18.4842 45.7806 17.0573 39.8699 17.0814 31.302Z" fill="var(--fill-0, white)"/>
<path id="Vector_11" d="M33.308 66.4892C28.7234 60.1742 25.638 53.4797 25.7874 45.6118C25.9224 38.5771 28.7234 32.5234 32.6283 26.9035C33.1731 26.1246 33.5105 26.1098 34.0649 26.8936C41.2288 37.0637 43.3018 47.8302 37.6854 59.4693C36.5139 61.8898 35.1786 64.2265 33.308 66.4892Z" fill="var(--fill-0, white)"/>
<path id="Vector_12" d="M57.3933 10.5226C58.2611 10.3648 58.507 11.0698 58.8541 11.5036C66.1385 20.6877 68.3947 31.0549 65.5214 42.487C64.456 46.7364 61.6936 49.5118 57.3548 50.414C55.1179 50.8823 52.8906 51.3703 50.6537 51.8288C50.2632 51.9077 49.7811 52.2232 49.463 51.8879C49.005 51.4048 49.5642 50.9809 49.757 50.5964C53.0015 44.1976 55.7591 37.6016 57.4223 30.5767C58.8348 24.6068 59.5145 18.5975 58.0056 12.5191C57.8417 11.8783 57.6199 11.2571 57.3933 10.5226Z" fill="var(--fill-0, white)"/>
<path id="Vector_13" d="M8.82838 10.9141C8.97783 12.531 8.2788 14.005 8.09078 15.548C7.26641 22.2278 8.56323 28.6217 10.4868 34.9366C12.1114 40.2805 14.2808 45.3975 16.8359 50.347C17.0818 50.8251 17.2939 51.3181 17.7519 52.2893C13.4806 50.8942 9.23816 51.0963 5.6032 48.8927C3.26506 47.4729 1.87181 45.2053 1.22099 42.5826C-1.6137 31.1752 0.483392 20.813 7.76296 11.6239C7.95098 11.3873 8.1631 11.1704 8.38968 10.9732C8.45717 10.8993 8.60662 10.9338 8.82838 10.9141Z" fill="var(--fill-0, white)"/>
<path id="Vector_14" d="M53.0601 31.8559C52.2888 19.4429 47.1593 9.05591 38.4238 0C41.0946 0.0394378 43.1146 0.941578 45.096 1.84865C51.609 4.8262 54.839 10.175 55.4223 17.2886C55.8032 21.9324 55.056 26.4825 53.87 30.9587C53.7977 31.2545 53.7929 31.708 53.0601 31.8559Z" fill="var(--fill-0, white)"/>
<path id="Vector_15" d="M13.403 31.8111C12.111 29.1786 11.6771 26.3292 11.412 23.4946C11.007 19.191 11.0504 14.8873 12.7715 10.7956C15.3989 4.55952 20.509 1.67563 26.5785 0.0882596C26.9112 -0.000475513 27.3933 -0.0990701 27.5427 0.290378C27.7597 0.862227 27.1908 1.13336 26.8774 1.47351C21.6998 7.11312 17.8141 13.5366 15.5435 20.9459C14.4636 24.4756 14.0104 28.1187 13.403 31.8111Z" fill="var(--fill-0, white)"/>
<path id="Vector_16" d="M27.9187 66.8842C18.8602 65.5187 11.759 60.9193 5.99805 53.0859C9.85477 54.2494 13.4222 54.4416 16.7631 55.6395C18.2962 56.1917 19.781 56.9459 20.8947 58.1931C23.3581 60.9489 25.3829 64.0792 27.9187 66.8842Z" fill="var(--fill-0, white)"/>
<path id="Vector_17" d="M60.016 53.3438C54.7708 61.0982 47.6118 65.5744 38.5967 66.9991C41.171 64.2089 43.2489 61.0341 45.7605 58.2439C47.39 56.4347 49.6125 55.5572 51.941 55.0445C54.6262 54.4579 57.3211 53.9107 60.016 53.3438Z" fill="var(--fill-0, white)"/>
<path id="Vector_18" d="M33.2796 20.3845C31.8237 17.8753 30.8451 15.4696 31.5296 12.6399C31.7707 11.6293 32.2962 10.9688 33.3616 10.9688C34.4366 10.9688 35.0393 11.6737 35.1935 12.6596C35.6226 15.4252 35.0971 17.969 33.2796 20.3845Z" fill="var(--fill-0, white)"/>
</g>
</svg>
