<svg preserveAspectRatio="xMidYMid meet" width="163.647" height="49.7412" overflow="visible" style="display: block;" viewBox="0 0 163.647 49.7412" fill="none" xmlns="http://www.w3.org/2000/svg">
<g id="Group 172">
<path id="Vector" d="M18.423 16.598C18.3952 19.1221 17.3672 21.2325 15.3392 22.9259C14.7851 23.3571 14.1683 23.7177 13.4819 24.0147C12.7954 24.3116 12.0706 24.5661 11.3075 24.7818C10.4921 24.9691 9.66625 25.1176 8.83692 25.2237C8.00759 25.3333 7.15735 25.3863 6.2862 25.3863H4.86449C4.33832 25.3863 3.89577 25.5666 3.54034 25.9307C3.18492 26.2913 3.0072 26.7438 3.0072 27.2811V35.9845H0V8.30469H8.38044C9.72549 8.38599 10.9521 8.5875 12.0567 8.90919C12.6909 9.0718 13.2763 9.26977 13.8164 9.51369C14.3565 9.75408 14.8653 10.0263 15.3392 10.3197C17.423 11.9529 18.4509 14.0492 18.423 16.598ZM15.1022 19.1787C15.6284 17.1106 15.5099 15.1098 14.7468 13.1761C13.9558 11.2424 12.5445 9.9273 10.5165 9.22735C9.43627 8.98696 8.22363 8.87737 6.87858 8.90565H3.00372V24.7818H6.04925C6.44649 24.7818 6.88555 24.7606 7.37339 24.7217C7.86124 24.6828 8.38392 24.6333 8.93449 24.5803C9.48854 24.5273 9.99729 24.4318 10.4573 24.2975C10.9172 24.1631 11.3458 24.0005 11.7431 23.8132C13.4296 22.7915 14.5482 21.2467 15.1022 19.1787Z" fill="var(--fill-0, white)"/>
<path id="Vector_2" d="M41.1982 35.9767H24.3955V8.29688H41.1982V10.5523C40.6163 9.99019 39.4176 9.58719 37.5986 9.34326C36.7031 9.23721 35.8006 9.14883 34.8911 9.08167C33.9816 9.0145 33.0547 8.96854 32.1034 8.94026C31.6539 8.91198 31.187 8.90138 30.6991 8.90138H29.2948C28.7687 8.90138 28.3192 9.08167 27.9498 9.44578C27.5804 9.8099 27.3957 10.2589 27.3957 10.7962V19.3794H37.4V19.9415H29.2948C28.7687 19.9415 28.3192 20.1218 27.9498 20.4859C27.5804 20.8465 27.3957 21.299 27.3957 21.8363V35.4146H27.6745C28.2007 35.4429 28.8314 35.4464 29.5736 35.4358C30.3123 35.4217 31.1556 35.404 32.1034 35.3757C33.0512 35.351 33.9816 35.3015 34.8911 35.2343C35.8006 35.1672 36.7031 35.0682 37.5986 34.9339C38.4942 34.8278 39.2468 34.6722 39.8532 34.4707C40.4595 34.2692 40.9055 34.0359 41.1982 33.7673V35.9767Z" fill="var(--fill-0, white)"/>
<path id="Vector_3" d="M65.0395 33.8858C65.6981 33.1611 66.0919 32.1147 66.2243 30.7431C66.2243 28.9968 65.5378 27.5474 64.1684 26.3914C63.4819 25.8541 62.7292 25.345 61.9138 24.8607C61.0984 24.3764 60.2133 23.9204 59.2655 23.4926C59.1854 23.4396 59.1018 23.3901 59.0077 23.3512C58.9136 23.3124 58.816 23.2664 58.7115 23.2098C58.1331 22.9129 57.5302 22.6336 56.9134 22.3649C56.2932 22.0963 55.666 21.8417 55.0352 21.5978C53.955 21.1701 52.9445 20.7176 52.0106 20.2474C51.0733 19.7773 50.1986 19.2611 49.3798 18.6955C47.7699 17.6208 46.8883 16.0654 46.7315 14.0221C46.6513 12.4631 47.3901 11.0668 48.9442 9.83302C50.8677 8.5427 53.1745 7.91346 55.8646 7.9382C58.7115 7.96648 61.1089 8.51442 63.0603 9.58909C65.0116 10.6638 66.4612 11.8586 67.409 13.1772L65.4716 14.3862C64.5238 12.1839 63.1543 10.639 61.3598 9.75171C60.4642 9.32396 59.5548 8.99166 58.6313 8.76542C57.7079 8.53917 56.7601 8.43665 55.7844 8.46493C53.9132 8.48968 52.3591 8.97399 51.1186 9.91432C49.8781 10.8547 49.3379 12.145 49.4982 13.7817C49.6829 14.8847 50.5401 15.878 52.0699 16.7618C52.833 17.1931 53.6519 17.6138 54.5195 18.0309C55.3907 18.4481 56.3524 18.8546 57.4048 19.2576C57.8787 19.4732 58.3595 19.6889 58.8474 19.9045C59.3352 20.1202 59.8161 20.3358 60.29 20.5479C61.5026 21.0852 62.6282 21.6544 63.6701 22.2589C64.712 22.8634 65.6667 23.528 66.5344 24.2527C68.2732 25.7304 69.0781 27.611 68.9457 29.8947C68.7332 31.6128 68.0363 32.9561 66.8515 33.9247C65.719 34.9181 64.2555 35.6039 62.4644 35.9786C60.513 36.4099 58.4571 36.4629 56.2967 36.1412C55.2164 36.0069 54.1955 35.7736 53.2337 35.4342C52.272 35.0984 51.3555 34.6494 50.4844 34.0838C48.7177 32.9808 47.4807 31.4113 46.7663 29.3715L48.9024 28.5266C49.6934 30.9977 51.4322 32.8925 54.1223 34.2075C56.7322 35.5791 59.4328 35.9928 62.2274 35.4554L62.3076 35.4165C63.4436 35.1761 64.353 34.6671 65.0395 33.8858Z" fill="var(--fill-0, white)"/>
<path id="Vector_4" d="M155.106 25.9488C154.656 27.4548 154.032 28.8582 153.227 30.1591C152.423 31.4636 151.454 32.5842 150.321 33.5246C149.189 34.4649 147.893 35.1896 146.429 35.6986C144.966 36.2077 143.352 36.4375 141.585 36.3844C140.321 36.3314 139.07 36.1688 137.829 35.9001C136.589 35.6315 135.414 35.1472 134.31 34.4507C132.278 33.1357 130.724 31.4176 129.644 29.293C129.118 28.1901 128.713 27.0518 128.438 25.8675C128.159 24.6833 128.023 23.4495 128.023 22.1627C128.023 19.37 128.689 16.8707 130.02 14.6683C131.351 12.466 133.257 10.7726 135.731 9.59193C136.784 9.08287 137.906 8.67987 139.09 8.38292C140.279 8.08597 141.47 7.9375 142.669 7.9375C143.868 7.9375 145.049 8.09658 146.21 8.42181C147.37 8.7435 148.464 9.24195 149.492 9.91362C150.496 10.557 151.377 11.31 152.14 12.169C152.903 13.028 153.565 13.9967 154.116 15.0678C154.353 15.5274 154.576 16.0506 154.789 16.6409L152.06 18.0514C151.795 17.1924 151.506 16.4253 151.189 15.7536C150.238 13.6325 148.854 11.9675 147.039 10.7585C145.722 9.8712 144.244 9.32326 142.61 9.10762C140.923 8.83895 139.275 8.92733 137.669 9.36921C136.062 9.81464 134.676 10.7055 133.515 12.0488C131.776 14.1982 130.909 17.0581 130.909 20.632C130.909 21.841 131.013 23.0571 131.226 24.2803C131.435 25.5034 131.773 26.6771 132.236 27.8048C132.696 28.9325 133.278 29.9894 133.975 30.9687C134.672 31.9479 135.522 32.7999 136.526 33.5246C137.578 34.3023 138.721 34.8537 139.944 35.1754C141.171 35.4971 142.401 35.6173 143.641 35.536C144.882 35.4547 146.081 35.1754 147.241 34.6911C148.401 34.2068 149.454 33.5352 150.405 32.6761V32.6372C150.959 32.1282 151.381 31.5201 151.67 30.8237C151.959 30.1238 152.105 29.3991 152.105 28.6461V23.0465H140.045V22.4844H155.109V25.9488H155.106Z" fill="var(--fill-0, white)"/>
<path id="Vector_5" d="M163.647 8.25781H160.64V35.9376H163.647V8.25781Z" fill="var(--fill-0, white)"/>
<path id="Vector_6" d="M51.9761 20.3769C46.1011 21.7591 45.9826 27.0052 46.7701 29.3773L48.9062 28.5324C48.1709 26.5421 47.9235 22.3848 51.9273 21.1617C75.3229 15.2687 96.3593 29.3278 117.399 26.3972V25.6513C94.9272 28.6879 81.3965 15.0389 51.9761 20.3769Z" fill="var(--fill-0, white)"/>
<path id="Vector_7" d="M77.9295 21.8717V10.6477V8.29688C77.1036 8.29688 76.3928 8.59029 75.8074 9.18065C75.2185 9.77455 74.9258 10.4992 74.9258 11.3583V35.9767H77.9295V35.5525V24.3321V21.8717Z" fill="var(--fill-0, white)"/>
<path id="Vector_8" d="M95.8404 8.29688C94.9971 8.29688 94.2932 8.59382 93.7252 9.18065C93.1573 9.77101 92.875 10.4992 92.875 11.3583V19.9415V22.4408V35.556V35.9802H95.8787V8.30041H95.8404V8.29688Z" fill="var(--fill-0, white)"/>
<path id="Vector_9" d="M113.392 8.25781H111.97L101.412 35.8988H102.402L104.381 30.2886L105.921 25.905C106.555 24.1587 107.2 22.4265 107.859 20.7084C108.517 18.9904 109.19 17.2582 109.873 15.5118L111.375 11.602L114.58 19.6585L114.716 20.0049L117.065 25.9086L117.288 26.4706H117.302L121.006 35.8068L121.013 35.8245L121.058 35.9376H124.421L113.392 8.25781Z" fill="var(--fill-0, white)"/>
<path id="Vector_10" d="M67.1903 5.47233C66.6397 5.25669 66.2878 5.01984 66.1344 4.86076C65.4271 4.17142 64.4618 3.29118 62.4268 1.76401C60.7194 0.537335 57.524 0 54.1823 0H45.5928C45.5928 0 46.2235 1.90542 48.0982 3.68357C49.9764 5.45819 53.1718 5.54657 59.8099 5.54657H64.7754C65.5943 5.54657 66.5596 5.68797 66.7721 5.76221C67.0544 5.86119 67.1032 5.8718 67.3645 5.98492C69.2253 6.78739 70.6226 7.82671 71.5983 9.12409L72.1035 8.96148C70.9989 7.48734 69.3786 6.3349 67.1903 5.47233Z" fill="var(--fill-0, white)"/>
<path id="Vector_11" d="M72.5315 43.7481V45.6288H74.5908V46.1732H72.5315V48.0927H74.8243V48.669H71.8311V43.1719H74.8243V43.7481H72.5315Z" fill="var(--fill-0, white)"/>
<path id="Vector_12" d="M80.2815 48.669L78.919 46.4913L77.682 48.669H76.8736L78.5288 45.8692L76.8457 43.1719H77.682L79.0131 45.3071L80.2571 43.1719H81.0655L79.4034 45.9222L81.1108 48.669H80.2815Z" fill="var(--fill-0, white)"/>
<path id="Vector_13" d="M87.7207 49.7412L86.63 48.6277C86.3721 48.6984 86.1108 48.7373 85.846 48.7373C85.3442 48.7373 84.8877 48.6171 84.48 48.3802C84.0723 48.1398 83.7552 47.8075 83.5217 47.3762C83.2918 46.9485 83.1768 46.4642 83.1768 45.9233C83.1768 45.3824 83.2918 44.8981 83.5217 44.4704C83.7517 44.0426 84.0723 43.7068 84.48 43.47C84.8877 43.2296 85.3407 43.1094 85.846 43.1094C86.3477 43.1094 86.8007 43.2296 87.2015 43.47C87.6057 43.7103 87.9193 44.0426 88.1528 44.4704C88.3827 44.8981 88.4977 45.3824 88.4977 45.9233C88.4977 46.4677 88.3827 46.9556 88.1528 47.3833C87.9228 47.8111 87.6057 48.1434 87.198 48.3767L88.6058 49.7412H87.7207ZM84.149 47.0581C84.3162 47.3868 84.5462 47.6378 84.8389 47.8111C85.1351 47.9843 85.4661 48.0727 85.8425 48.0727C86.2118 48.0727 86.5429 47.9843 86.8391 47.8075C87.1353 47.6308 87.3652 47.3798 87.5325 47.0545C87.6998 46.7293 87.7834 46.3511 87.7834 45.9198C87.7834 45.4814 87.6998 45.1032 87.5325 44.7779C87.3652 44.4527 87.1353 44.2017 86.8391 44.0285C86.5464 43.8553 86.2118 43.7669 85.8425 43.7669C85.4696 43.7669 85.1351 43.8553 84.8389 44.0285C84.5427 44.2017 84.3127 44.4527 84.149 44.7779C83.9817 45.1032 83.8981 45.485 83.8981 45.9198C83.9016 46.3511 83.9852 46.7329 84.149 47.0581Z" fill="var(--fill-0, white)"/>
<path id="Vector_14" d="M91.6234 43.1719V46.4701C91.6234 47.011 91.7384 47.4105 91.9684 47.665C92.1984 47.9231 92.5155 48.0503 92.9197 48.0503C93.3204 48.0503 93.6305 47.9195 93.857 47.6615C94.0835 47.3999 94.195 47.0039 94.195 46.4701V43.1719H94.878V46.4701C94.878 47.2196 94.7003 47.7816 94.3414 48.1564C93.9825 48.5346 93.5051 48.722 92.9057 48.722C92.3099 48.722 91.836 48.5346 91.477 48.1564C91.1216 47.7781 90.9404 47.216 90.9404 46.4701V43.1719H91.6234Z" fill="var(--fill-0, white)"/>
<path id="Vector_15" d="M98.2971 43.1719H97.5967V48.669H98.2971V43.1719Z" fill="var(--fill-0, white)"/>
<path id="Vector_16" d="M104.2 47.9737C104.078 48.1964 103.89 48.3802 103.639 48.5181C103.388 48.6595 103.078 48.7302 102.708 48.7302C102.35 48.7302 102.032 48.663 101.75 48.5322C101.471 48.3979 101.248 48.2176 101.081 47.9878C100.914 47.758 100.82 47.4929 100.792 47.1959H101.538C101.555 47.3515 101.607 47.5035 101.694 47.652C101.785 47.8004 101.914 47.9242 102.078 48.0196C102.245 48.1151 102.444 48.1646 102.681 48.1646C102.987 48.1646 103.224 48.0797 103.388 47.9136C103.552 47.7474 103.635 47.5353 103.635 47.2737C103.635 47.051 103.576 46.8672 103.461 46.7258C103.346 46.5844 103.203 46.4748 103.036 46.3935C102.865 46.3122 102.635 46.2273 102.343 46.1319C101.998 46.0188 101.722 45.9092 101.517 45.8102C101.308 45.7077 101.133 45.5557 100.987 45.3542C100.841 45.1527 100.768 44.884 100.768 44.5517C100.768 44.2654 100.837 44.0144 100.973 43.7952C101.109 43.576 101.304 43.4063 101.559 43.2897C101.813 43.1695 102.109 43.1094 102.454 43.1094C102.987 43.1094 103.409 43.2402 103.723 43.5018C104.036 43.7634 104.217 44.0992 104.27 44.5022H103.517C103.475 44.283 103.367 44.0921 103.186 43.926C103.008 43.7598 102.764 43.6785 102.454 43.6785C102.172 43.6785 101.949 43.7528 101.778 43.9012C101.611 44.0497 101.524 44.2583 101.524 44.5269C101.524 44.7391 101.579 44.9123 101.688 45.0466C101.799 45.1809 101.935 45.2835 102.099 45.3577C102.262 45.4319 102.489 45.5168 102.775 45.6122C103.123 45.7253 103.402 45.8349 103.618 45.941C103.831 46.0435 104.012 46.2026 104.158 46.4112C104.308 46.6233 104.381 46.9025 104.381 47.249C104.385 47.5106 104.322 47.751 104.2 47.9737Z" fill="var(--fill-0, white)"/>
<path id="Vector_17" d="M107.559 43.1719H106.858V48.669H107.559V43.1719Z" fill="var(--fill-0, white)"/>
<path id="Vector_18" d="M113.538 43.1719V43.7481H112.008V48.669H111.308V43.7481H109.778V43.1719H113.538Z" fill="var(--fill-0, white)"/>
<path id="Vector_19" d="M116.465 43.7481V45.6288H118.525V46.1732H116.465V48.0927H118.758V48.669H115.769V43.1719H118.758V43.7481H116.465Z" fill="var(--fill-0, white)"/>
<path id="Vector_20" d="M128.787 43.1719V48.669H128.08V46.1272H125.33V48.669H124.63V43.1719H125.33V45.551H128.08V43.1719H128.787Z" fill="var(--fill-0, white)"/>
<path id="Vector_21" d="M132.146 43.7481V45.6288H134.206V46.1732H132.146V48.0927H134.439V48.669H131.449V43.1719H134.439V43.7481H132.146Z" fill="var(--fill-0, white)"/>
<path id="Vector_22" d="M140.049 47.4032H137.666L137.213 48.6758H136.46L138.467 43.2812H139.258L141.258 48.6758H140.506L140.049 47.4032ZM139.85 46.8517L138.857 44.0766L137.868 46.8517H139.85Z" fill="var(--fill-0, white)"/>
<path id="Vector_23" d="M144.199 48.1139H146.119V48.669H143.499V43.1719H144.199V48.1139Z" fill="var(--fill-0, white)"/>
<path id="Vector_24" d="M149.074 43.1719H148.374V48.669H149.074V43.1719Z" fill="var(--fill-0, white)"/>
<path id="Vector_25" d="M155.943 48.669H155.246L152.43 44.3243V48.669H151.733V43.1719H152.43L155.246 47.5236V43.1719H155.943V48.669Z" fill="var(--fill-0, white)"/>
<path id="Vector_26" d="M162.65 43.5954C163.078 43.9136 163.364 44.3448 163.514 44.8892H162.775C162.646 44.5569 162.434 44.2883 162.134 44.0868C161.834 43.8853 161.479 43.7828 161.068 43.7828C160.698 43.7828 160.367 43.8711 160.075 44.0444C159.782 44.2176 159.552 44.465 159.388 44.7903C159.221 45.112 159.137 45.4937 159.137 45.9286C159.137 46.3775 159.221 46.7628 159.392 47.0881C159.562 47.4133 159.796 47.6643 160.096 47.8375C160.395 48.0107 160.74 48.0991 161.131 48.0991C161.465 48.0991 161.768 48.0249 162.043 47.8799C162.322 47.735 162.545 47.5229 162.723 47.2436C162.901 46.9643 163.005 46.6391 163.044 46.2644H160.914V45.7341H163.636V46.3881C163.591 46.8265 163.455 47.2189 163.235 47.5724C163.016 47.9259 162.716 48.2052 162.343 48.4137C161.97 48.6223 161.545 48.7248 161.068 48.7248C160.545 48.7248 160.085 48.6082 159.684 48.3713C159.284 48.1345 158.974 47.8057 158.751 47.3815C158.528 46.9573 158.416 46.473 158.416 45.9286C158.416 45.3842 158.528 44.8998 158.751 44.4756C158.974 44.0514 159.284 43.7191 159.684 43.4823C160.085 43.2419 160.542 43.1252 161.061 43.1252C161.692 43.1182 162.221 43.2772 162.65 43.5954Z" fill="var(--fill-0, white)"/>
</g>
</svg>
