<svg preserveAspectRatio="xMidYMid meet" width="40" height="40" overflow="visible" style="display: block;" viewBox="0 0 40 40" fill="none" xmlns="http://www.w3.org/2000/svg">
<g id="Group 139">
<g id="Rectangle 252">
</g>
<path id="Vector (Stroke)" fill-rule="evenodd" clip-rule="evenodd" d="M20 10.0719C14.5169 10.0719 10.0719 14.5169 10.0719 19.9999C10.0719 25.4831 14.5169 29.9281 20 29.9281C25.4831 29.9281 29.9281 25.4831 29.9281 19.9999C29.9281 14.5169 25.4831 10.0719 20 10.0719ZM8 19.9999C8 13.3725 13.3726 8 20 8C26.6274 8 32 13.3725 32 19.9999C32 26.6273 26.6274 32 20 32C13.3726 32 8 26.6273 8 19.9999ZM16.2228 24.5783V15.4418H18.2948V24.5783H16.2228ZM21.7049 24.5783V15.4418H23.7768V24.5783H21.7049Z" fill="var(--fill-0, white)"/>
</g>
</svg>
