<svg preserveAspectRatio="xMidYMid meet" width="40" height="40" overflow="visible" style="display: block;" viewBox="0 0 40 40" fill="none" xmlns="http://www.w3.org/2000/svg">
<g id="Group 141">
<rect id="Rectangle 254" width="40" height="40" fill="var(--fill-0, white)" fill-opacity="0.01"/>
<path id="Vector" fill-rule="evenodd" clip-rule="evenodd" d="M15.619 13.0481L9.31663 13.0305C8.43778 13.0283 7.59433 13.3725 6.97241 13.9871C6.34951 14.6018 6 15.4361 6 16.3062V23.6753C6 25.4845 7.48086 26.951 9.30775 26.951H15.6177L19.534 31.2321C20.189 31.9484 21.2209 32.1907 22.1305 31.8436C23.0414 31.4963 23.6412 30.6304 23.6412 29.6643V10.3357C23.6412 9.37027 23.0414 8.50457 22.1305 8.1563C21.2209 7.80899 20.189 8.05247 19.534 8.76755L15.619 13.0481ZM16.1041 15.2331C16.4162 15.2341 16.7149 15.1029 16.9244 14.8748L21.1693 10.2344C21.2112 10.1873 21.2784 10.1722 21.3379 10.1939C21.3975 10.2168 21.4361 10.2736 21.4361 10.336V29.6646C21.4361 29.728 21.3975 29.7835 21.3379 29.8064C21.2784 29.8293 21.2112 29.813 21.1693 29.7672L16.9244 25.1267C16.715 24.8984 16.4184 24.7675 16.1073 24.7675H9.30782C8.69919 24.7675 8.20524 24.2793 8.20524 23.6756V16.3064C8.20524 16.0171 8.32215 15.7388 8.52937 15.5336C8.7366 15.3293 9.0179 15.2146 9.31101 15.2146L16.1042 15.2333L16.1041 15.2331ZM30.2568 18.467L27.7285 15.9635C27.2986 15.5375 26.5996 15.5375 26.1697 15.9635C25.7395 16.3893 25.7395 17.0815 26.1697 17.5072L28.6977 20.011L26.1697 22.5147C25.7395 22.9405 25.7395 23.6327 26.1697 24.0585C26.5996 24.4845 27.2986 24.4845 27.7285 24.0585L30.2568 21.5549L32.7852 24.0585C33.2151 24.4845 33.9141 24.4845 34.344 24.0585C34.7742 23.6327 34.7742 22.9405 34.344 22.5147L31.8159 20.011L34.344 17.5072C34.7742 17.0814 34.7742 16.3893 34.344 15.9635C33.9141 15.5375 33.2151 15.5375 32.7852 15.9635L30.2568 18.467Z" fill="var(--fill-0, white)"/>
</g>
</svg>
