<svg preserveAspectRatio="xMidYMid meet" width="47" height="65" overflow="visible" style="display: block;" viewBox="0 0 47 65" fill="none" xmlns="http://www.w3.org/2000/svg">
<path id="Vector" d="M46.1155 13.9276C43.2998 14.2738 35.9971 16.179 28.4503 26.1042C34.3544 13.4335 26.5123 3.17426 23.9591 0.327501C23.5653 -0.111864 22.8517 -0.10579 22.4497 0.325476C13.3874 10.0138 15.391 19.5138 18.6374 25.7661C10.6743 16.4261 3.3756 15.0148 0.738318 14.8387C0.23178 14.8043 -0.131205 15.3266 0.0451604 15.7964C1.45198 19.536 3.17462 22.2917 4.46865 24.0937C7.23103 27.9407 10.9347 33.0997 16.9906 33.9561C19.1521 34.2618 21.0532 33.9379 22.5174 33.5127C22.9706 38.2688 22.2242 41.5488 21.4182 44.9848C20.3641 49.4938 19.1685 54.6042 20.5692 63.5677C20.7107 64.4788 21.5659 65.1065 22.4866 64.985C22.4969 64.9829 22.5092 64.9809 22.5195 64.9809C23.4526 64.8372 24.0924 63.9746 23.9488 63.0534C22.6487 54.7318 23.7171 50.164 24.7507 45.744C25.5607 42.2838 26.3851 38.7081 25.9647 33.6423C27.6341 34.0148 29.6787 34.191 31.8853 33.6524C37.2009 32.3525 40.1376 27.7341 42.9533 23.3061C44.2042 21.3401 45.7177 18.5682 46.9563 14.9905C47.145 14.4439 46.6959 13.8567 46.1155 13.9276Z" fill="var(--fill-0, #093B35)"/>
</svg>
